<svg xmlns="http://www.w3.org/2000/svg" version="1.1" xmlns:xlink="http://www.w3.org/1999/xlink" xmlns:svgjs="http://svgjs.dev/svgjs" width="1500" height="1500" viewBox="0 0 1500 1500"><g transform="matrix(1,0,0,1,-0.323615160350073,-0.3236151603499593)"><svg viewBox="0 0 343 343" data-background-color="#ffffff" preserveAspectRatio="xMidYMid meet" height="1500" width="1500" xmlns="http://www.w3.org/2000/svg" xmlns:xlink="http://www.w3.org/1999/xlink"><g id="tight-bounds" transform="matrix(1,0,0,1,0.0740000000000407,0.07400000000001228)"><svg viewBox="0 0 342.85155851775386 342.85155851775386" height="342.85155851775386" width="342.85155851775386"><g><svg></svg></g><g><svg viewBox="0 0 342.85155851775386 342.85155851775386" height="342.85155851775386" width="342.85155851775386"><g><path d="M0 171.426c0-94.676 76.75-171.426 171.426-171.426 94.676 0 171.426 76.75 171.426 171.426 0 94.676-76.75 171.426-171.426 171.426-94.676 0-171.426-76.75-171.426-171.426zM171.426 332.127c88.753 0 160.701-71.948 160.701-160.701 0-88.753-71.948-160.701-160.701-160.701-88.753 0-160.701 71.948-160.701 160.701 0 88.753 71.948 160.701 160.701 160.701z" data-fill-palette-color="tertiary" fill="#000000" stroke="transparent"></path><ellipse rx="164.56874808852186" ry="164.56874808852186" cx="171.42577925887693" cy="171.42577925887693" fill="#000000" stroke="transparent" stroke-width="0" fill-opacity="1" data-fill-palette-color="tertiary"></ellipse></g><g transform="matrix(1,0,0,1,64.84655864529837,111.9640944805216)"><svg viewBox="0 0 213.1584412271571 118.92336955671067" height="118.92336955671067" width="213.1584412271571"><g><svg viewBox="0 0 213.1584412271571 118.92336955671067" height="118.92336955671067" width="213.1584412271571"><g><svg viewBox="0 0 213.1584412271571 118.92336955671067" height="118.92336955671067" width="213.1584412271571"><g id="textblocktransform"><svg viewBox="0 0 213.1584412271571 118.92336955671067" height="118.92336955671067" width="213.1584412271571" id="textblock"><g><svg viewBox="0 0 213.1584412271571 118.92336955671067" height="118.92336955671067" width="213.1584412271571"><g transform="matrix(1,0,0,1,0,0)"><svg width="213.1584412271571" viewBox="3.08 -35.99 64.5 35.99" height="118.92336955671067" data-palette-color="#ffffff"><path d="M21.48-35.94L33.98 0 27.93 0 18.6-26.95 9.18 0 3.08 0 15.67-35.94 21.48-35.94ZM15.28-11.43L21.83-11.43 23.24-7.47 13.92-7.47 15.28-11.43ZM61.62-11.18L61.62-35.99 67.58-35.99 67.58 0 61.62 0 49.51-21.29 49.51-32.52 61.62-11.18ZM47.51 0L41.55 0 41.55-35.99 47.51-35.99 47.51 0Z" opacity="1" transform="matrix(1,0,0,1,0,0)" fill="#ffffff" class="wordmark-text-0" data-fill-palette-color="quaternary" id="text-0"></path></svg></g></svg></g></svg></g></svg></g></svg></g></svg></g></svg></g><defs></defs></svg><rect width="342.85155851775386" height="342.85155851775386" fill="none" stroke="none" visibility="hidden"></rect></g></svg></g></svg>